<svg width="35" height="35" viewBox="0 0 35 35" fill="none" xmlns="http://www.w3.org/2000/svg">
<path fill-rule="evenodd" clip-rule="evenodd" d="M2.91669 17.5C2.91669 9.44562 9.44565 2.91666 17.5 2.91666C25.5544 2.91666 32.0834 9.44562 32.0834 17.5C32.0834 25.5544 25.5544 32.0833 17.5 32.0833C9.44565 32.0833 2.91669 25.5544 2.91669 17.5ZM17.5 5.83333C14.4058 5.83333 11.4384 7.06249 9.25044 9.25042C7.06252 11.4383 5.83335 14.4058 5.83335 17.5C5.83335 20.5942 7.06252 23.5617 9.25044 25.7496C11.4384 27.9375 14.4058 29.1667 17.5 29.1667C20.5942 29.1667 23.5617 27.9375 25.7496 25.7496C27.9375 23.5617 29.1667 20.5942 29.1667 17.5C29.1667 14.4058 27.9375 11.4383 25.7496 9.25042C23.5617 7.06249 20.5942 5.83333 17.5 5.83333Z" fill="white"/>
<path fill-rule="evenodd" clip-rule="evenodd" d="M18.9583 10.2083C18.9583 9.82156 18.8047 9.45063 18.5312 9.17714C18.2577 8.90365 17.8868 8.75 17.5 8.75C17.1132 8.75 16.7423 8.90365 16.4688 9.17714C16.1953 9.45063 16.0417 9.82156 16.0417 10.2083V16.0417H10.2083C9.82156 16.0417 9.45063 16.1953 9.17714 16.4688C8.90365 16.7423 8.75 17.1132 8.75 17.5C8.75 17.8868 8.90365 18.2577 9.17714 18.5312C9.45063 18.8047 9.82156 18.9583 10.2083 18.9583H16.0417V24.7917C16.0417 25.1784 16.1953 25.5494 16.4688 25.8229C16.7423 26.0964 17.1132 26.25 17.5 26.25C17.8868 26.25 18.2577 26.0964 18.5312 25.8229C18.8047 25.5494 18.9583 25.1784 18.9583 24.7917V18.9583H24.7917C25.1784 18.9583 25.5494 18.8047 25.8229 18.5312C26.0964 18.2577 26.25 17.8868 26.25 17.5C26.25 17.1132 26.0964 16.7423 25.8229 16.4688C25.5494 16.1953 25.1784 16.0417 24.7917 16.0417H18.9583V10.2083Z" fill="white"/>
</svg>
