<svg width="35" height="35" viewBox="0 0 35 35" fill="none" xmlns="http://www.w3.org/2000/svg">
<path d="M10.2083 13.125V10.2083H30.625V13.125H10.2083ZM10.2083 18.9583V16.0417H30.625V18.9583H10.2083ZM10.2083 24.7917V21.875H30.625V24.7917H10.2083ZM5.83334 13.125C5.42014 13.125 5.07403 12.985 4.79501 12.705C4.51598 12.425 4.37598 12.0789 4.37501 11.6667C4.37403 11.2544 4.51403 10.9083 4.79501 10.6283C5.07598 10.3483 5.42209 10.2083 5.83334 10.2083C6.24459 10.2083 6.59119 10.3483 6.87313 10.6283C7.15507 10.9083 7.29459 11.2544 7.29167 11.6667C7.28875 12.0789 7.14876 12.4255 6.87167 12.7065C6.59459 12.9874 6.24848 13.1269 5.83334 13.125ZM5.83334 18.9583C5.42014 18.9583 5.07403 18.8183 4.79501 18.5383C4.51598 18.2583 4.37598 17.9122 4.37501 17.5C4.37403 17.0878 4.51403 16.7417 4.79501 16.4617C5.07598 16.1817 5.42209 16.0417 5.83334 16.0417C6.24459 16.0417 6.59119 16.1817 6.87313 16.4617C7.15507 16.7417 7.29459 17.0878 7.29167 17.5C7.28875 17.9122 7.14876 18.2588 6.87167 18.5398C6.59459 18.8208 6.24848 18.9603 5.83334 18.9583ZM5.83334 24.7917C5.42014 24.7917 5.07403 24.6517 4.79501 24.3717C4.51598 24.0917 4.37598 23.7456 4.37501 23.3333C4.37403 22.9211 4.51403 22.575 4.79501 22.295C5.07598 22.015 5.42209 21.875 5.83334 21.875C6.24459 21.875 6.59119 22.015 6.87313 22.295C7.15507 22.575 7.29459 22.9211 7.29167 23.3333C7.28875 23.7456 7.14876 24.0922 6.87167 24.3731C6.59459 24.6541 6.24848 24.7936 5.83334 24.7917Z" fill="white"/>
</svg>
