<svg width="60" height="60" viewBox="0 0 60 60" fill="none" xmlns="http://www.w3.org/2000/svg">
<path d="M42.2322 42L39.9198 46.3482L51.2418 44.4972C48.957 43.3512 45.864 42.5322 42.2322 42ZM13.0662 42.948C7.8222 44.331 4.5 46.5972 4.5 49.9632C4.50216 50.6879 4.66056 51.4035 4.9644 52.0614L23.1354 49.0914L13.0662 42.948ZM55.074 48L29.784 52.122L36.4536 59.7096C47.406 58.7286 55.5 55.23 55.5 49.9632C55.5 49.2612 55.3488 48.6084 55.074 48ZM25.5108 52.8336L8.4228 55.6266C12.9396 58.4244 20.9118 60 30 60C30.5508 60 31.089 59.9844 31.6314 59.973L25.5108 52.8336Z" fill="white"/>
<path d="M30.0012 0C20.2212 0 12.1968 7.9998 12.1968 17.7576C12.1968 21.5088 13.389 25.0032 15.402 27.8766L26.9424 47.8266L26.9916 47.8908C27.447 48.4854 27.8916 48.9546 28.4136 49.2996C28.9356 49.6452 29.5836 49.8516 30.2196 49.788C31.4904 49.6608 32.2686 48.7632 33.0072 47.7624L33.0468 47.7108L45.7872 26.0262L45.7944 26.0124C46.0932 25.4724 46.314 24.9228 46.5012 24.3876C47.3598 22.2826 47.802 20.031 47.8032 17.7576C47.8032 7.9998 39.7812 0 30.0012 0ZM30.0012 10.227C34.2438 10.227 37.5552 13.5324 37.5552 17.757C37.5552 21.9828 34.2438 25.287 30.0012 25.287C25.758 25.287 22.4448 21.9822 22.4448 17.757C22.4448 13.533 25.7586 10.227 30.0012 10.227Z" fill="white"/>
</svg>
