<svg width="9" height="16" viewBox="0 0 9 16" fill="none" xmlns="http://www.w3.org/2000/svg">
<path d="M4.5 14C4.22 14 4 13.78 4 13.5V4.5C4 4.22 4.22 4 4.5 4C4.78 4 5 4.22 5 4.5V13.5C5 13.78 4.78 14 4.5 14Z" fill="white"/>
<path d="M7.99999 7.49999C7.93441 7.50079 7.8694 7.48786 7.80912 7.46202C7.74884 7.43619 7.69464 7.39803 7.64999 7.34999L4.49999 4.19999L1.34999 7.34999C1.14999 7.54999 0.83999 7.54999 0.63999 7.34999C0.43999 7.14999 0.43999 6.83999 0.63999 6.63999L4.13999 3.13999C4.33999 2.93999 4.64999 2.93999 4.84999 3.13999L8.34999 6.63999C8.54999 6.83999 8.54999 7.14999 8.34999 7.34999C8.24999 7.44999 8.11999 7.49999 7.99999 7.49999Z" fill="white"/>
</svg>
