<svg width="35" height="35" viewBox="0 0 35 35" fill="none" xmlns="http://www.w3.org/2000/svg">
<path d="M17.5 29.1667C20.5942 29.1667 23.5617 27.9375 25.7496 25.7496C27.9375 23.5616 29.1667 20.5942 29.1667 17.5C29.1667 14.4058 27.9375 11.4383 25.7496 9.25041C23.5617 7.06249 20.5942 5.83332 17.5 5.83332C14.4058 5.83332 11.4383 7.06249 9.25043 9.25041C7.0625 11.4383 5.83334 14.4058 5.83334 17.5C5.83334 20.5942 7.0625 23.5616 9.25043 25.7496C11.4383 27.9375 14.4058 29.1667 17.5 29.1667ZM17.5 2.91666C19.4151 2.91666 21.3115 3.29387 23.0808 4.02675C24.8501 4.75963 26.4578 5.83383 27.812 7.18802C29.1662 8.5422 30.2404 10.1499 30.9732 11.9192C31.7061 13.6885 32.0833 15.5849 32.0833 17.5C32.0833 21.3677 30.5469 25.0771 27.812 27.812C25.0771 30.5469 21.3677 32.0833 17.5 32.0833C9.43542 32.0833 2.91667 25.5208 2.91667 17.5C2.91667 13.6322 4.45313 9.92292 7.18803 7.18802C9.92294 4.45311 13.6323 2.91666 17.5 2.91666ZM18.2292 10.2083V17.8646L24.7917 21.7583L23.6979 23.5521L16.0417 18.9583V10.2083H18.2292Z" fill="#0D99FF"/>
</svg>
